HIERARCHY
ROOT Hips
{
	OFFSET 0.000000 0.000000 0.000000
	CHANNELS 6 Xposition Yposition Zposition Xrotation Yrotation Zrotation
	JOINT LeftUpLeg_virtual
	{
		OFFSET 0.000000 0.000000 0.000000
		CHANNELS 3 Xrotation Yrotation Zrotation
		JOINT LeftUpLeg
		{
			OFFSET 11.394100 -6.187798 -0.413800
			CHANNELS 3 Xrotation Yrotation Zrotation
			JOINT LeftLeg
			{
				OFFSET 0.430247 -32.302673 3.732800
				CHANNELS 3 Xrotation Yrotation Zrotation
				JOINT LeftFoot
				{
					OFFSET -0.430247 -48.264931 -6.423300
					CHANNELS 3 Xrotation Yrotation Zrotation
					JOINT LeftToeBase
					{
						OFFSET 4.230900 -16.068199 23.438400
						CHANNELS 3 Xrotation Yrotation Zrotation
						JOINT LeftToe_End
						{
							OFFSET 4.510700 0.695400 19.974600
							CHANNELS 3 Xrotation Yrotation Zrotation
							End Site
							{
								OFFSET 0 0 0
							}
						}
					}
				}
			}
		}
	}
	JOINT RightUpLeg_virtual
	{
		OFFSET 0.000000 0.000000 0.000000
		CHANNELS 3 Xrotation Yrotation Zrotation
		JOINT RightUpLeg
		{
			OFFSET -11.333700 -6.187798 -0.413800
			CHANNELS 3 Xrotation Yrotation Zrotation
			JOINT RightLeg
			{
				OFFSET -0.430392 -32.302628 3.733000
				CHANNELS 3 Xrotation Yrotation Zrotation
				JOINT RightFoot
				{
					OFFSET 0.430392 -48.264973 -6.423500
					CHANNELS 3 Xrotation Yrotation Zrotation
					JOINT RightToeBase
					{
						OFFSET -4.230900 -16.068199 23.438400
						CHANNELS 3 Xrotation Yrotation Zrotation
						JOINT RightToe_End
						{
							OFFSET -4.510700 0.695400 19.974600
							CHANNELS 3 Xrotation Yrotation Zrotation
							End Site
							{
								OFFSET 0 0 0
							}
						}
					}
				}
			}
		}
	}
	JOINT Spine_virtual
	{
		OFFSET 0.000000 0.000000 0.000000
		CHANNELS 3 Xrotation Yrotation Zrotation
		JOINT Spine
		{
			OFFSET -0.002400 12.777504 0.315300
			CHANNELS 3 Xrotation Yrotation Zrotation
			JOINT Spine1
			{
				OFFSET -0.002067 5.816869 0.032633
				CHANNELS 3 Xrotation Yrotation Zrotation
				JOINT Spine1_split
				{
					OFFSET -0.002067 5.816869 0.032633
					CHANNELS 3 Xrotation Yrotation Zrotation
					JOINT Spine2
					{
						OFFSET -0.002067 5.816869 0.032633
						CHANNELS 3 Xrotation Yrotation Zrotation
						JOINT Neck_virtual
						{
							OFFSET 0.000000 0.000000 0.000000
							CHANNELS 3 Xrotation Yrotation Zrotation
							JOINT Neck
							{
								OFFSET -0.003700 21.199493 -0.826900
								CHANNELS 3 Xrotation Yrotation Zrotation
								JOINT Head
								{
									OFFSET 0.000000 20.442200 4.834800
									CHANNELS 3 Xrotation Yrotation Zrotation
									JOINT HeadTop_End
									{
										OFFSET 0.000000 34.668396 4.968400
										CHANNELS 3 Xrotation Yrotation Zrotation
										End Site
										{
											OFFSET 0 0 0
										}
									}
								}
							}
						}
						JOINT LeftShoulder_virtual
						{
							OFFSET 0.000000 0.000000 0.000000
							CHANNELS 3 Xrotation Yrotation Zrotation
							JOINT LeftShoulder
							{
								OFFSET 3.288150 8.794197 -1.372250
								CHANNELS 3 Xrotation Yrotation Zrotation
								JOINT LeftShoulder_split
								{
									OFFSET 3.288150 8.794197 -1.372250
									CHANNELS 3 Xrotation Yrotation Zrotation
									JOINT LeftArm
									{
										OFFSET 11.953299 -2.279007 -0.146200
										CHANNELS 3 Xrotation Yrotation Zrotation
										JOINT LeftForeArm
										{
											OFFSET 18.448900 0.000000 0.000000
											CHANNELS 3 Xrotation Yrotation Zrotation
											JOINT LeftHand
											{
												OFFSET 29.527798 0.000000 0.000000
												CHANNELS 3 Xrotation Yrotation Zrotation
												End Site
												{
													OFFSET 0 0 0
												}
											}
										}
									}
								}
							}
						}
						JOINT RightShoulder_virtual
						{
							OFFSET 0.000000 0.000000 0.000000
							CHANNELS 3 Xrotation Yrotation Zrotation
							JOINT RightShoulder
							{
								OFFSET -3.249400 8.794197 -1.372250
								CHANNELS 3 Xrotation Yrotation Zrotation
								JOINT RightShoulder_split
								{
									OFFSET -3.249400 8.794197 -1.372250
									CHANNELS 3 Xrotation Yrotation Zrotation
									JOINT RightArm
									{
										OFFSET -11.953299 -2.279007 -0.146200
										CHANNELS 3 Xrotation Yrotation Zrotation
										JOINT RightForeArm
										{
											OFFSET -18.448900 0.000000 0.000000
											CHANNELS 3 Xrotation Yrotation Zrotation
											JOINT RightHand
											{
												OFFSET -29.527802 0.000000 0.000000
												CHANNELS 3 Xrotation Yrotation Zrotation
												End Site
												{
													OFFSET 0 0 0
												}
											}
										}
									}
								}
							}
						}
					}
				}
			}
		}
	}
}
MOTION
Frames: 5
Frame Time: 0.03333333
0.078150 80.813789 2.795620 0.000000 0.000000 0.000000 26.120120 -23.082286 8.772115 -82.070795 -4.238462 21.950983 59.480532 0.604753 5.081405 1.470012 0.476737 -18.505067 0.000005 0.000001 0.000015 0.000000 0.000000 0.000000 26.120120 -23.082286 8.772115 -78.398995 -2.536000 -21.612194 64.559037 -2.053730 -7.510652 -7.147977 -2.313787 16.756821 -7.598707 -0.000011 0.000001 0.000000 0.000000 0.000000 26.120120 -23.082286 8.772115 14.950509 2.773480 -0.784757 9.003405 1.560769 -0.642825 0.000000 0.000000 0.000000 0.000000 0.000000 0.000000 8.977736 1.670484 -0.748274 -7.842653 3.349096 -7.790139 -42.916957 9.463869 7.869840 0.000000 0.000000 0.000000 8.977736 1.670484 -0.748274 3.941279 -6.602831 9.980203 0.000000 0.000000 0.000000 -51.728892 5.083714 -64.509532 -0.001604 -86.914342 -0.001675 0.000000 0.000000 0.000000 8.977736 1.670484 -0.748274 3.972220 12.305895 4.222360 0.000000 0.000000 0.000000 -39.870591 11.660009 46.257104 -179.987820 88.978746 179.987642 0.000000 0.000000 0.000000 
0.074198 81.121696 3.037403 0.000000 0.000000 0.000000 26.336892 -23.127623 8.842049 -81.759407 -3.936619 21.981574 59.095801 0.446369 5.106932 1.237828 0.493967 -18.430593 -0.000014 0.000001 0.000020 0.000000 0.000000 0.000000 26.336892 -23.127623 8.842049 -77.987496 -2.912930 -21.516663 63.894070 -2.207616 -7.788397 -7.253195 -1.985536 16.744649 -7.630232 0.000002 -0.000001 0.000000 0.000000 0.000000 26.336892 -23.127623 8.842049 14.949513 2.577820 -0.883660 8.954939 1.454247 -0.667650 0.000000 0.000000 0.000000 0.000000 0.000000 0.000000 8.929225 1.567215 -0.769621 -7.642842 3.429842 -7.508564 -43.074776 9.987862 7.921035 0.000000 0.000000 0.000000 8.929225 1.567215 -0.769621 3.858304 -6.469473 9.422127 0.000000 0.000000 0.000000 -49.881059 5.784868 -65.370935 0.013785 -89.198377 0.013802 0.000000 0.000000 0.000000 8.929225 1.567215 -0.769621 3.960223 12.222857 4.273393 0.000000 0.000000 0.000000 -38.946907 11.840057 48.020840 -179.999144 86.265084 179.999090 0.000000 0.000000 0.000000 
0.026832 81.280029 3.180584 0.000000 0.000000 0.000000 26.609521 -23.273086 8.959688 -81.639243 -3.837761 22.073423 58.928352 0.396500 5.158396 1.036257 0.516642 -18.524568 0.000000 -0.000003 0.000004 0.000000 0.000000 0.000000 26.609521 -23.273086 8.959688 -77.903635 -3.115693 -21.262007 63.578351 -2.285744 -8.013607 -7.351030 -1.844070 16.670361 -7.690675 0.000014 -0.000008 0.000000 0.000000 0.000000 26.609521 -23.273086 8.959688 14.962883 2.302065 -0.934944 8.932683 1.291006 -0.662406 0.000000 0.000000 0.000000 0.000000 0.000000 0.000000 8.908017 1.411640 -0.757966 -7.575330 3.601987 -7.236720 -43.266670 10.835726 8.058436 0.000000 0.000000 0.000000 8.908017 1.411640 -0.757966 3.730450 -6.286349 8.218744 0.000000 0.000000 0.000000 -48.220220 5.755345 -65.566592 179.999008 -88.580450 179.998885 0.000000 0.000000 0.000000 8.908017 1.411640 -0.757966 3.981622 12.107282 3.979453 0.000000 0.000000 0.000000 -38.415842 11.620501 49.978765 -179.999868 83.383516 179.999882 0.000000 0.000000 0.000000 
-0.076367 81.314453 3.244095 0.000000 0.000000 0.000000 26.954973 -23.464015 9.151936 -81.679801 -3.870968 22.182189 58.895191 0.430437 5.243295 0.870578 0.541261 -18.723558 0.000006 -0.000001 -0.000003 0.000000 0.000000 0.000000 26.954973 -23.464015 9.151936 -78.098815 -3.173370 -20.897922 63.524195 -2.287387 -8.236307 -7.442578 -1.851341 16.654450 -7.700366 -0.000019 -0.000011 0.000000 0.000000 0.000000 26.954973 -23.464015 9.151936 14.989420 2.018083 -0.903237 8.922836 1.103811 -0.624603 0.000000 0.000000 0.000000 0.000000 0.000000 0.000000 8.900803 1.229010 -0.711227 -7.629411 3.839544 -7.045019 -43.504422 11.961175 8.054571 0.000000 0.000000 0.000000 8.900803 1.229010 -0.711227 3.590622 -6.098773 6.593870 0.000000 0.000000 0.000000 -46.754725 5.551503 -65.181274 -179.999841 -86.628382 -179.999868 0.000000 0.000000 0.000000 8.900803 1.229010 -0.711227 3.972972 11.944953 3.645321 0.000000 0.000000 0.000000 -37.723876 11.625857 51.744229 -179.999909 80.145098 179.999896 0.000000 0.000000 0.000000 
-0.245518 81.238792 3.228901 0.000000 0.000000 0.000000 27.284693 -23.672485 9.385181 -81.807081 -3.967914 22.312211 58.965795 0.476140 5.368623 0.743294 0.566748 -18.990286 -0.000009 0.000002 0.000020 0.000000 0.000000 0.000000 27.284693 -23.672485 9.385181 -78.493702 -3.089941 -20.525861 63.713336 -2.246337 -8.460833 -7.424263 -1.878140 16.886435 -7.670950 0.000025 0.000005 0.000000 0.000000 0.000000 27.284693 -23.672485 9.385181 15.071323 1.821357 -0.815053 8.939658 0.957387 -0.571683 0.000000 0.000000 0.000000 0.000000 0.000000 0.000000 8.920493 1.082580 -0.650628 -7.736412 4.058795 -6.950456 -43.731659 13.107988 7.767555 0.000000 0.000000 0.000000 8.920493 1.082580 -0.650628 3.463475 -5.915801 5.093591 0.000000 0.000000 0.000000 -45.480324 5.589814 -64.700340 179.999773 -85.077369 179.999800 0.000000 0.000000 0.000000 8.920493 1.082580 -0.650628 3.929821 11.747137 3.404043 0.000000 0.000000 0.000000 -36.530307 12.188385 52.703430 179.999896 76.844498 -179.999896 0.000000 0.000000 0.000000 
